/* XPM */
static char * balloonpointer_xpm[] = {
/* This file is in the Public Domain */
"64 120 2 1",
" 	c None",
".	c white",
"                ................................................",
"                ................................................",
"                 .............................................. ",
"                 .............................................. ",
"                 .............................................. ",
"                 .............................................. ",
"                  ............................................. ",
"                  ............................................  ",
"                  ............................................  ",
"                   ...........................................  ",
"                   ...........................................  ",
"                   ...........................................  ",
"                   ..........................................   ",
"                    .........................................   ",
"                    .........................................   ",
"                    .........................................   ",
"                    .........................................   ",
"                     .......................................    ",
"                     .......................................    ",
"                     .......................................    ",
"                     .......................................    ",
"                      ......................................    ",
"                      .....................................     ",
"                      .....................................     ",
"                      .....................................     ",
"                      .....................................     ",
"                      .....................................     ",
"                       ...................................      ",
"                       ...................................      ",
"                       ...................................      ",
"                       ...................................      ",
"                       ..................................       ",
"                       ..................................       ",
"                       ..................................       ",
"                       ..................................       ",
"                       ..................................       ",
"                       ..................................       ",
"                       .................................        ",
"                       .................................        ",
"                       .................................        ",
"                       .................................        ",
"                       .................................        ",
"                       ................................         ",
"                       ................................         ",
"                       ................................         ",
"                       ...............................          ",
"                       ...............................          ",
"                       ...............................          ",
"                       ...............................          ",
"                       ..............................           ",
"                       ..............................           ",
"                       ..............................           ",
"                       .............................            ",
"                      ..............................            ",
"                      ..............................            ",
"                      ..............................            ",
"                      .............................             ",
"                      .............................             ",
"                      .............................             ",
"                      ............................              ",
"                      ............................              ",
"                     ............................               ",
"                     ............................               ",
"                     ............................               ",
"                     ...........................                ",
"                     ..........................                 ",
"                    ...........................                 ",
"                    ...........................                 ",
"                    ..........................                  ",
"                    ..........................                  ",
"                    ..........................                  ",
"                    .........................                   ",
"                   .........................                    ",
"                   .........................                    ",
"                   ........................                     ",
"                  ........................                      ",
"                  ........................                      ",
"                  .......................                       ",
"                  ......................                        ",
"                 .......................                        ",
"                 ......................                         ",
"                 .....................                          ",
"                 .....................                          ",
"                .....................                           ",
"               .....................                            ",
"               ....................                             ",
"               ....................                             ",
"               ...................                              ",
"              ...................                               ",
"              ..................                                ",
"             ...................                                ",
"             ..................                                 ",
"             .................                                  ",
"             ................                                   ",
"            ................                                    ",
"           ................                                     ",
"           ................                                     ",
"          ................                                      ",
"          ...............                                       ",
"         ...............                                        ",
"         ..............                                         ",
"         .............                                          ",
"         ............                                           ",
"        ............                                            ",
"        ..........                                              ",
"       ..........                                               ",
"       .........                                                ",
"      .........                                                 ",
"     .........                                                  ",
"     ........                                                   ",
"    ........                                                    ",
"    .......                                                     ",
"   .......                                                      ",
"   .....                                                        ",
"  .....                                                         ",
"  ....                                                          ",
" ....                                                           ",
" ...                                                            ",
"...                                                             ",
".                                                               "};
