/* XPM */
static char * btn_yes_xpm[] = {
"32 32 7 1",
" 	c None",
".	c #413A34",
"+	c #88796D",
"@	c #00CC00",
"#	c #D7BAA0",
"$	c #E9CCB1",
"%	c #FFF0C2",
"            %%%$$$$$            ",
"         %%%%%$$$$$$$$#         ",
"       %%%%%$$$$$$$$$$###       ",
"      %%%%%$$$$$$$$$$$$###      ",
"     %%%%$$$$$$$$$$$$$$$#++     ",
"    %%%%$$$$$$$$$$$$$$$$$+++    ",
"   %%%%$$$$$$$$$$$$$$@@@$$+++   ",
"  %%%%$$$$$$$$$$$$$$$@@@$$$+++  ",
"  %%%$$$$$$$$$$$$$$$@@@@$$$+++  ",
" %%%%$$$$$$$$$$$$$$$@@@@$$$$+++ ",
" %%%$$$$$$$$$$$$$$$@@@@$$$$$+++ ",
" %%$$$$$$$$$$$$$$$$@@@@$$$$$+++ ",
"%%%$$$$$$$$$$$$$$$@@@@$$$$$$$+++",
"$%$$$$$$$$$$$$$$$$@@@@$$$$$$$+.+",
"$$$$$$$$$$$$$$$$$$@@@$$$$$$$$+.+",
"$$$$$$$$$$$$$$$$$@@@@$$$$$$$$+.+",
"$$$$$$$$$$$$$$$$$@@@@$$$$$$$$+.+",
"$$$$$@@@$$$$$$$$@@@@$$$$$$$$$+.+",
"$$$$$@@@@$$$$$$$@@@@$$$$$$$$$..+",
"$$$$$@@@@@$$$$$$@@@$$$$$$$$$$..+",
" $$$$$@@@@@$$$$@@@@$$$$$$$$$+.. ",
" $$$$$$@@@@@$$$@@@@$$$$$$$$$..+ ",
" $$$$$$$@@@@@$@@@@$$$$$$$$$+..+ ",
"  $$$$$$$@@@@@@@@@$$$$$$$$+..+  ",
"  $$$$$$$$@@@@@@@$$$$$$$$$+..+  ",
"   $$$$$$$$@@@@@@$$$$$$$$+..+   ",
"    $$$$$$$$@@@@$$$$$$$$+..+    ",
"     #++$$$$$@@@$$$$$$+...+     ",
"      #++++$$$$$$$$$+....+      ",
"       #+++++++++++....++       ",
"         ##++.......+++         ",
"            #+++++++            "};
