/* XPM */
static char * btn_cont_xpm[] = {
"32 32 2 1",
" 	c None",
".	c #413A34",
"                                ",
"                                ",
"                                ",
"                                ",
"                                ",
"        .                       ",
"        ...                     ",
"        .....                   ",
"        .......                 ",
"        .........               ",
"        ...........             ",
"        .............           ",
"        ...............         ",
"        .................       ",
"        ...................     ",
"        ....................    ",
"        ...................     ",
"        .................       ",
"        ...............         ",
"        .............           ",
"        ...........             ",
"        .........               ",
"        .......                 ",
"        .....                   ",
"        ...                     ",
"        .                       ",
"                                ",
"                                ",
"                                ",
"                                ",
"                                ",
"                                "};
