/* XPM */
static char * btn_down_xpm[] = {
"32 32 2 1",
" 	c None",
".	c #605030",
"                                ",
"                                ",
"                                ",
"                                ",
"                                ",
"                                ",
"                                ",
"      .....................     ",
"       ...................      ",
"       ...................      ",
"        .................       ",
"        .................       ",
"         ...............        ",
"         ...............        ",
"          .............         ",
"          .............         ",
"           ...........          ",
"           ...........          ",
"            .........           ",
"            .........           ",
"             .......            ",
"             .......            ",
"              .....             ",
"              .....             ",
"               ...              ",
"               ...              ",
"                .               ",
"                                ",
"                                ",
"                                ",
"                                ",
"                                "};
