/* XPM */
static char * btn_no_xpm[] = {
"32 32 2 1",
" 	c None",
".	c #AA0000",
"                                ",
"                                ",
"                                ",
"                                ",
"                                ",
"                                ",
"                                ",
"                                ",
"                                ",
"                                ",
"                                ",
"                                ",
"                                ",
"     .....................      ",
"     .....................      ",
"     .....................      ",
"     .....................      ",
"     .....................      ",
"                                ",
"                                ",
"                                ",
"                                ",
"                                ",
"                                ",
"                                ",
"                                ",
"                                ",
"                                ",
"                                ",
"                                ",
"                                ",
"                                "};
