/* XPM */
static char * btn_yes_xpm[] = {
"32 32 2 1",
" 	c None",
".	c #00AA00",
"                                ",
"                                ",
"                                ",
"                                ",
"                                ",
"             .....              ",
"             .....              ",
"             .....              ",
"             .....              ",
"             .....              ",
"             .....              ",
"             .....              ",
"             .....              ",
"     .....................      ",
"     .....................      ",
"     .....................      ",
"     .....................      ",
"     .....................      ",
"             .....              ",
"             .....              ",
"             .....              ",
"             .....              ",
"             .....              ",
"             .....              ",
"             .....              ",
"             .....              ",
"                                ",
"                                ",
"                                ",
"                                ",
"                                ",
"                                "};
