/* XPM */
static char * btn_yes_xpm[] = {
"32 32 7 1",
" 	c None",
".	c #FFF0C2",
"+	c #E9CCB1",
"@	c #D7BAA0",
"#	c #88796D",
"$	c #00CC00",
"%	c #413A34",
"            ...+++++            ",
"         .....++++++++@         ",
"       .....++++++++++@@@       ",
"      .....++++++++++++@@@      ",
"     ....+++++++++++++++@##     ",
"    ....+++++$$$$$+++++++###    ",
"   ....++++++$$$$$++++++++###   ",
"  ....+++++++$$$$$+++++++++###  ",
"  ...++++++++$$$$$+++++++++###  ",
" ....++++++++$$$$$++++++++++### ",
" ...+++++++++$$$$$++++++++++### ",
" ..++++++++++$$$$$++++++++++### ",
"...++++++++++$$$$$+++++++++++###",
"+.+++$$$$$$$$$$$$$$$$$$$$$+++#%#",
"+++++$$$$$$$$$$$$$$$$$$$$$+++#%#",
"+++++$$$$$$$$$$$$$$$$$$$$$+++#%#",
"+++++$$$$$$$$$$$$$$$$$$$$$+++#%#",
"+++++$$$$$$$$$$$$$$$$$$$$$+++#%#",
"+++++++++++++$$$$$+++++++++++%%#",
"+++++++++++++$$$$$+++++++++++%%#",
" ++++++++++++$$$$$++++++++++#%% ",
" ++++++++++++$$$$$++++++++++%%# ",
" ++++++++++++$$$$$+++++++++#%%# ",
"  +++++++++++$$$$$++++++++#%%#  ",
"  +++++++++++$$$$$++++++++#%%#  ",
"   ++++++++++$$$$$+++++++#%%#   ",
"    ++++++++++++++++++++#%%#    ",
"     @##++++++++++++++#%%%#     ",
"      @####+++++++++#%%%%#      ",
"       @###########%%%%##       ",
"         @@##%%%%%%%###         ",
"            @#######            "};
