/* XPM */
static char * btn_no_xpm[] = {
"32 32 7 1",
" 	c None",
".	c #CC0000",
"+	c #413A34",
"@	c #88796D",
"#	c #D7BAA0",
"$	c #E9CCB1",
"%	c #FFF0C2",
"            %%%$$$$$            ",
"         %%%%%$$$$$$$$#         ",
"       %%%%%$$$$$$$$$$###       ",
"      %%%%%$$$$$$$$$$$$###      ",
"     %%%%$$$$$$$$$$$$$$$#@@     ",
"    %%%%$$$$$$$$$$$$...$$@@@    ",
"   %%%%...$$$$$$$$$....$$$@@@   ",
"  %%%%$....$$$$$$$$....$$$$@@@  ",
"  %%%$$.....$$$$$$....$$$$$@@@  ",
" %%%%$$$.....$$$$.....$$$$$$@@@ ",
" %%%$$$$$.....$$.....$$$$$$$@@@ ",
" %%$$$$$$$....$$....$$$$$$$$@@@ ",
"%%%$$$$$$$$........$$$$$$$$$$@@@",
"$%$$$$$$$$$........$$$$$$$$$$@+@",
"$$$$$$$$$$$$......$$$$$$$$$$$@+@",
"$$$$$$$$$$$$$.....$$$$$$$$$$$@+@",
"$$$$$$$$$$$$.......$$$$$$$$$$@+@",
"$$$$$$$$$$$.........$$$$$$$$$@+@",
"$$$$$$$$$$$....$.....$$$$$$$$++@",
"$$$$$$$$$$....$$$....$$$$$$$$++@",
" $$$$$$$$.....$$$$....$$$$$$@++ ",
" $$$$$$$.....$$$$$.....$$$$$++@ ",
" $$$$$$$....$$$$$$$.....$$$@++@ ",
"  $$$$$....$$$$$$$$$....$$@++@  ",
"  $$$$$....$$$$$$$$$$...$$@++@  ",
"   $$$$...$$$$$$$$$$$$$$$@++@   ",
"    $$$$$$$$$$$$$$$$$$$$@++@    ",
"     #@@$$$$$$$$$$$$$$@+++@     ",
"      #@@@@$$$$$$$$$@++++@      ",
"       #@@@@@@@@@@@++++@@       ",
"         ##@@+++++++@@@         ",
"            #@@@@@@@            "};
