/* XPM */
static char * btn_xpm[] = {
/* This file is in the Public Domain */
"32 32 6 1",
" 	c None",
":	c #413A34",
"+	c #88796D",
"@	c #D7BAA0",
".	c #E9CCB1",
"$	c #FFF0C2",
"            $$$.....            ",
"         $$$$$........@         ",
"       $$$$$..........@@@       ",
"      $$$$$............@@@      ",
"     $$$$...............@++     ",
"    $$$$.................+++    ",
"   $$$$...................+++   ",
"  $$$$.....................+++  ",
"  $$$......................+++  ",
" $$$$.......................+++ ",
" $$$........................+++ ",
" $$.........................+++ ",
"$$$..........................+++",
".$...........................+:+",
".............................+:+",
".............................+:+",
".............................+:+",
".............................+:+",
".............................::+",
".............................::+",
" ...........................+:: ",
" ...........................::+ ",
" ..........................+::+ ",
"  ........................+::+  ",
"  ........................+::+  ",
"   ......................+::+   ",
"    ....................+::+    ",
"     @++..............+:::+     ",
"      @++++.........+::::+      ",
"       @+++++++++++::::++       ",
"         @@++:::::::+++         ",
"            @+++++++            "};
