#define btn_help_width 13
#define btn_help_height 22
static unsigned char btn_help_bits[] = {
   0xfc, 0x03, 0xff, 0x07, 0xff, 0x0f, 0x8f, 0x0f, 0x03, 0x1f, 0x00, 0x1f,
   0x00, 0x0f, 0x80, 0x0f, 0xc0, 0x07, 0xe0, 0x03, 0xf0, 0x01, 0xf0, 0x00,
   0xf0, 0x00, 0x78, 0x00, 0x78, 0x00, 0x78, 0x00, 0x00, 0x00, 0x00, 0x00,
   0x78, 0x00, 0x78, 0x00, 0x78, 0x00, 0x78, 0x00 };
