#define btn_yes_width 21
#define btn_yes_height 21
static unsigned char btn_yes_bits[] = {
   0x00, 0x1f, 0x00, 0x00, 0x1f, 0x00, 0x00, 0x1f, 0x00, 0x00, 0x1f, 0x00,
   0x00, 0x1f, 0x00, 0x00, 0x1f, 0x00, 0x00, 0x1f, 0x00, 0x00, 0x1f, 0x00,
   0xff, 0xff, 0x1f, 0xff, 0xff, 0x1f, 0xff, 0xff, 0x1f, 0xff, 0xff, 0x1f,
   0xff, 0xff, 0x1f, 0x00, 0x1f, 0x00, 0x00, 0x1f, 0x00, 0x00, 0x1f, 0x00,
   0x00, 0x1f, 0x00, 0x00, 0x1f, 0x00, 0x00, 0x1f, 0x00, 0x00, 0x1f, 0x00,
   0x00, 0x1f, 0x00 };
