#define btn_pause_width 12
#define btn_pause_height 14
static unsigned char btn_pause_bits[] = {
   0x9f, 0x0f, 0x9f, 0x0f, 0x9f, 0x0f, 0x9f, 0x0f, 0x9f, 0x0f, 0x9f, 0x0f,
   0x9f, 0x0f, 0x9f, 0x0f, 0x9f, 0x0f, 0x9f, 0x0f, 0x9f, 0x0f, 0x9f, 0x0f,
   0x9f, 0x0f, 0x9f, 0x0f };
