#define btn_cancel_width 19
#define btn_cancel_height 18
static unsigned char btn_cancel_bits[] = {
   0x18, 0xc0, 0x00, 0x3c, 0xe0, 0x01, 0x7e, 0xf0, 0x03, 0xfe, 0xf8, 0x03,
   0xfc, 0xfd, 0x01, 0xf8, 0xff, 0x00, 0xf0, 0x7f, 0x00, 0xe0, 0x3f, 0x00,
   0xc0, 0x1f, 0x00, 0xe0, 0x3f, 0x00, 0xf0, 0x7f, 0x00, 0xf8, 0xff, 0x00,
   0xfc, 0xfd, 0x01, 0xfe, 0xf8, 0x03, 0x7f, 0xf0, 0x07, 0x3e, 0xe0, 0x03,
   0x1c, 0xc0, 0x01, 0x08, 0x80, 0x00 };
