#define btn_eject_width 15
#define btn_eject_height 19
static unsigned char btn_eject_bits[] = {
   0x80, 0x00, 0xc0, 0x01, 0xe0, 0x03, 0xf0, 0x07, 0xf8, 0x0f, 0xfc, 0x1f,
   0xfe, 0x3f, 0xff, 0x7f, 0x00, 0x00, 0x00, 0x00, 0xff, 0x7f, 0xff, 0x7f,
   0xff, 0x7f, 0xff, 0x7f, 0xff, 0x7f, 0x00, 0x00, 0x00, 0x00, 0x00, 0x00,
   0x00, 0x00 };
