/* XPM */
static char * info_xpm[] = {
"64 64 3 1",
" 	c None",
".	c #8888FF",
"+	c #FFFF88",
"                          ............                          ",
"                      ....................                      ",
"                   ..........................                   ",
"                 ..............................                 ",
"               ..................................               ",
"              ...............++++++...............              ",
"             ............++++++++++++++............             ",
"           ...........++++++++++++++++++++...........           ",
"          ..........++++++++++++++++++++++++..........          ",
"         .........++++++++++++++++++++++++++++.........         ",
"        .........++++++++++++++++++++++++++++++.........        ",
"       .........+++++++++++++++++.....++++++++++.........       ",
"       .......++++++++++++++++++.......+++++++++++.......       ",
"      .......++++++++++++++++++.........+++++++++++.......      ",
"     .......++++++++++++++++++..........++++++++++++.......     ",
"    ........++++++++++++++++++..........++++++++++++........    ",
"    .......+++++++++++++++++++..........+++++++++++++.......    ",
"   .......++++++++++++++++++++.........+++++++++++++++.......   ",
"   ......+++++++++++++++++++++........+++++++++++++++++......   ",
"  .......++++++++++++++++++++++......++++++++++++++++++.......  ",
"  ......+++++++++++++++++++++++++..+++++++++++++++++++++......  ",
"  ......++++++++++++++++++++++++++++++++++++++++++++++++......  ",
" ......++++++++++++++++++++++++++++++++++++++++++++++++++...... ",
" ......++++++++++++++++++.............+++++++++++++++++++...... ",
" ......++++++++++++++++++.............+++++++++++++++++++...... ",
" .....+++++++++++++++++++.............++++++++++++++++++++..... ",
"......+++++++++++++++++++.............++++++++++++++++++++......",
"......++++++++++++++++++++++..........++++++++++++++++++++......",
"......++++++++++++++++++++++.........+++++++++++++++++++++......",
".....+++++++++++++++++++++++.........++++++++++++++++++++++.....",
".....+++++++++++++++++++++++.........++++++++++++++++++++++.....",
".....+++++++++++++++++++++++.........++++++++++++++++++++++.....",
".....++++++++++++++++++++++..........++++++++++++++++++++++.....",
".....++++++++++++++++++++++.........+++++++++++++++++++++++.....",
".....++++++++++++++++++++++.........+++++++++++++++++++++++.....",
"......+++++++++++++++++++++.........++++++++++++++++++++++......",
"......+++++++++++++++++++++.........++++++++++++++++++++++......",
"......++++++++++++++++++++..........++++++++++++++++++++++......",
" .....++++++++++++++++++++.........+++++++++++++++++++++++..... ",
" ......+++++++++++++++++++.........++++++++++++++++++++++...... ",
" ......+++++++++++++++++++.........++++++++++++++++++++++...... ",
" ......+++++++++++++++++++.........++++++++++++++++++++++...... ",
"  ......+++++++++++++++++..........+++++++++++++++++++++......  ",
"  ......+++++++++++++++++.........++++++++++++++++++++++......  ",
"  .......++++++++++++++++.........+++++++++++++++++++++.......  ",
"   ......++++++++++++++++.........+++++++++++++++++++++......   ",
"   .......+++++++++++++++.........++++++++++++++++++++.......   ",
"    .......+++++++++++++..........+++++++++++++++++++.......    ",
"    ........++++++++++++.............+++++++++++++++........    ",
"     .......++++++++++++.............+++++++++++++++.......     ",
"      .......+++++++++++.............++++++++++++++.......      ",
"       .......++++++++++++++++++++++++++++++++++++.......       ",
"       .........++++++++++++++++++++++++++++++++.........       ",
"        .........++++++++++++++++++++++++++++++.........        ",
"         .........++++++++++++++++++++++++++++.........         ",
"          ..........++++++++++++++++++++++++..........          ",
"           ...........++++++++++++++++++++...........           ",
"             ............++++++++++++++............             ",
"              ...............++++++...............              ",
"               ..................................               ",
"                 ..............................                 ",
"                   ..........................                   ",
"                      ....................                      ",
"                          ............                          "};
