/* XPM */
static char * lua_xpm[] = {
/*
 * Public Domain
 * Drawn by hand by Markus Gritsch <gritsch@iue.tuwien.ac.at>
 */
"32 32 5 1",
" 	c None",
".	c #C0C0C0",
"+	c #808080",
"@	c #000080",
"#	c #FFFFFF",
"                          ...   ",
"                        .+@@@+. ",
"                        +@@@@@+ ",
"                       .@@@@@@@.",
"         ++@@@@@@++    .@@@@@@@.",
"       +@@@@@@@@@@@@+  .@@@@@@@.",
"     .@@@@@@@@@@@@@@@@. +@@@@@+ ",
"    +@@@@@@@@@@@@@@@@@@+.+@@@+. ",
"   +@@@@@@@@@@@@@@+++@@@+ ...   ",
"  .@@@@@@@@@@@@@+.###.+@@.      ",
"  @@@@@@@@@@@@@@.#####.@@@      ",
" +@@@@@@@@@@@@@+#######+@@+     ",
" @@@@@@@@@@@@@@+#######+@@@     ",
"+@@@@@@@@@@@@@@+#######+@@@+    ",
"+@@@@@@@@@@@@@@@.#####.@@@@+    ",
"@@@@@@@@@@@@@@@@+.###.+@@@@@    ",
"@@@@+#@@@@@@@@@@@@+++@@@@@@@    ",
"@@@@+#@@@@@@@@@@@@@@@@@@@@@@    ",
"@@@@+#@@@@@#+@@#+@+###.@@@@@    ",
"@@@@+#@@@@@#+@@#+@#.++#+@@@@    ",
"@@@@+#@@@@@#+@@#+@@@@+#+@@@@    ",
"+@@@+#@@@@@#+@@#+@@##.#+@@@+    ",
"+@@@+#@@@@@#+@@#+@#+@@#+@@@+    ",
" @@@+#++++@#.+.#+@#+++#+@@@     ",
" +@@+#####@+##+#+@+###+.@@+     ",
"  @@@@@@@@@@@@@@@@@@@@@@@@      ",
"  .@@@@@@@@@@@@@@@@@@@@@@.      ",
"   +@@@@@@@@@@@@@@@@@@@@+       ",
"    +@@@@@@@@@@@@@@@@@@+        ",
"     .@@@@@@@@@@@@@@@@.         ",
"       +@@@@@@@@@@@@+           ",
"         ++@@@@@@++             "};
