#define mfinger_mask_width 16
#define mfinger_mask_height 16
#define mfinger_mask_x_hot 6
#define mfinger_mask_y_hot 0
static unsigned char mfinger_mask_bits[] = {
   0x40, 0x00, 0xe0, 0x00, 0xe0, 0x00, 0xe0, 0x00, 0xe0, 0x01, 0xf0, 0x07,
   0xf8, 0x1f, 0xf8, 0x3f, 0xf8, 0x3f, 0xf8, 0x3f, 0xf8, 0x3f, 0xf8, 0x3f,
   0xf0, 0x3f, 0xe0, 0x1f, 0xc0, 0x1f, 0xc0, 0x1f };
