#define mfinger_width 16
#define mfinger_height 16
#define mfinger_x_hot 6
#define mfinger_y_hot 1
static unsigned char mfinger_bits[] = {
   0x40, 0x00, 0xa0, 0x00, 0xe0, 0x00, 0xa0, 0x00, 0xa0, 0x01, 0xb0, 0x06,
   0xa8, 0x1a, 0x38, 0x28, 0x28, 0x20, 0x28, 0x20, 0x08, 0x20, 0x08, 0x20,
   0x10, 0x20, 0x20, 0x10, 0x40, 0x10, 0x40, 0x10 };
