#define mpointer_width 16
#define mpointer_height 16
#define mpointer_x_hot 0
#define mpointer_y_hot 7
static unsigned char mpointer_bits[] = {
   0x00, 0x60, 0x00, 0x58, 0x00, 0x46, 0x80, 0x41, 0x60, 0x30, 0x18, 0x0c,
   0x06, 0x03, 0x81, 0x00, 0x06, 0x03, 0x18, 0x0c, 0x60, 0x30, 0x80, 0x41,
   0x00, 0x46, 0x00, 0x58, 0x00, 0x60, 0x00, 0x00 };
