#define mpointer_mask_width 16
#define mpointer_mask_height 16
#define mpointer_mask_x_hot 0
#define mpointer_mask_y_hot 7
static unsigned char mpointer_mask_bits[] = {
   0x00, 0x60, 0x00, 0x78, 0x00, 0x7e, 0x80, 0x7f, 0xe0, 0x3f, 0xf8, 0x0f,
   0xfe, 0x03, 0xff, 0x00, 0xfe, 0x03, 0xf8, 0x0f, 0xe0, 0x3f, 0x80, 0x7f,
   0x00, 0x7e, 0x00, 0x78, 0x00, 0x60, 0x00, 0x00 };
