#define round_lower_right_width 16
#define round_lower_right_height 16
static unsigned char round_lower_right_bits[] = {
   0xff, 0xff, 0xff, 0xff, 0xff, 0xff, 0xff, 0xff, 0xff, 0x7f, 0xff, 0x7f,
   0xff, 0x7f, 0xff, 0x3f, 0xff, 0x1f, 0xff, 0x1f, 0xff, 0x0f, 0xff, 0x07,
   0xff, 0x03, 0xff, 0x00, 0x7f, 0x00, 0x0f, 0x00 };
