#define round_upper_left_width 16
#define round_upper_left_height 16
static unsigned char round_upper_left_bits[] = {
   0x00, 0xf0, 0x00, 0xfe, 0x00, 0xff, 0xc0, 0xff, 0xe0, 0xff, 0xf0, 0xff,
   0xf8, 0xff, 0xf8, 0xff, 0xfc, 0xff, 0xfe, 0xff, 0xfe, 0xff, 0xfe, 0xff,
   0xff, 0xff, 0xff, 0xff, 0xff, 0xff, 0xff, 0xff };
