/* XPM */
static char * akf64_xpm[] = {

/* 
personal icon for AKFoerster (AKF)
This file is dedicated to the Public Domain (CC0)
http://creativecommons.org/publicdomain/zero/1.0/
privacy rights are preserved
*/

"64 64 17 1",
" 	c None",
".	c #0109F5",
"+	c #201FDF",
"@	c #3834C8",
"#	c #423BBF",
"$	c #584FAA",
"%	c #675D9C",
"&	c #716692",
"*	c #7C6F89",
"=	c #8A7D7B",
"-	c #9B8C6A",
";	c #A8985C",
">	c #B5A550",
",	c #C9B73D",
"'	c #DDC828",
")	c #F0DB11",
"!	c #0000FF",
"!!!!!!!!      !!!!!!!!      !!!!!!!!      !!!!!!!!      !!!!!!!!",
"!!!!!!!!      !!!!!!!!      !!!!!!!!      !!!!!!!!      !!!!!!!!",
"!!!!!!!!      !!!!!!!!      !!!!!!!!      !!!!!!!!      !!!!!!!!",
"!!!!!!!!      !!!!!!!!      !!!!!!!!      !!!!!!!!      !!!!!!!!",
"!!!!!!!!      !!!!!!!!      !!!!!!!!      !!!!!!!!      !!!!!!!!",
"!!!!!!!!      !!!!!!!!      !!!!!!!!      !!!!!!!!      !!!!!!!!",
"!!!!!!!!      !!!!!!!!      !!!!!!!!      !!!!!!!!      !!!!!!!!",
"!!!!!!!!      !!!!!!!!      !!!!!!!!      !!!!!!!!      !!!!!!!!",
"!!!!!!!!      !!!!!!!!      !!!!!!!!      !!!!!!!!      !!!!!!!!",
"!!!!!!!!!!!!!!!!!!!!!!!!!!!!!!!!!!!!!!!!!!!!!!!!!!!!!!!!!!!!!!!!",
"!!!!!!!!!!!!!!!!!!!!!!!!!!!!!!!!!!!!!!!!!!!!!!!!!!!!!!!!!!!!!!!!",
"!!!!!!!!!!!!!!!!!!!!!!!!!!!!!!!!!!!!!!!!!!!!!!!!!!!!!!!!!!!!!!!!",
"!!!!!!!!!!!!!!!!!!!!!!!!!!!!!!!!!!!!!!!!!!!!!!!!!!!!!!!!!!!!!!!!",
"!!!!!!!!!!!!!!!!!!!!!!!!!!!!!!!!!!!!!!!!!!!!!!!!!!!!!!!!!!!!!!!!",
"!!!!!!!!!!!!!!!!!!!!!!!!!!!!!!!!!!!!!!!!!!!!!!!!!!!!!!!!!!!!!!!!",
"!!!!!!!!!!!!!!!!!!!!!!!!!!!!!!!!!!!!!!!!!!!!!!!!!!!!!!!!!!!!!!!!",
"!!!!!!!!!!!!!!!!!!!!!!!!!!!!!!!!!!!!!!!!!!!!!!!!!!!!!!!!!!!!!!!!",
"!!!!!!!!!!!!!!!!!!!!!!!!!!!!!!!!!!!!!!!!!!!!!!!!!!!!!!!!!!!!!!!!",
"!!!!!!!!!!!!!!!!!!!!!!!!!!!!!!!!!!!!!!!!!!!!!!!!!!!!!!!!!!!!!!!!",
"!!!!!!!!!!!!-)));!!!!!!!@)))))))).=)))))))).!@)))))))))))))'.!!!",
"!!!!!!!!!!!.'))))+!!!!!.@)'))'))).=))'))'))..@)'))'))'))')))&!!!",
"!!!!!!!!!!!&))))'&!!!!!!.@;))))-#.+#')))'*@!!.@-))))>**='))),!!!",
"!!!!!!!!!!!,)'))),!!!!!.!!.)))).!!!%)))&..!!!!!.)))).!!!!%)))#!!",
"!!!!!!!!!!@))-))))@!!!!!!!.')))!!!&))'#.!!!!!!!!)))).!!!!.#')-!!",
"!!!!!!!!!!-)'.')))-!!!!!!!!))))!!%))'@!!!!!!!!!!))))!!!;)@!%)).!",
"!!!!!!!!..')=!=)))'.!!!!!!!))')!&)))&!!!!!!!!!!!)'))!!.')@!!-$.!",
"!!!!!!!!!%))+!+))))%!!!!!!!))))&))))'..!!!!!!!!!))))@#=))@!!!!!!",
"!!!!!!!!.,)>.!.>)))>!!!!!!!))))))')))-!!!!!!!!!!)))))))))@!!!!!!",
"!!!!!!!!@)))))))))))+.!!!!!)))));>))))@!!!!!!!!!)')))))))@!.!.!!",
"!!!!!!!!-))'))))))))=!!!!!!))))-.+)))),.!!!!!!!!))))@@-)'@!!!!!!",
"!!!!!!!.))),,,,,')))'.!!!!!')))!!!=)'))&!!!!!!!!))))!!!')@!!!!!!",
"!!!!!!.%))*!!!!!*)))'$!!!!!))))!!!.')))'+!!!!!!!))))!!!>)@!!!!!!",
"!!!!!!.,))+!!!!!+))));!!!!!))))!!!!%))))>!!!!!!!))))!!!.+.!!!!!!",
" !!!!!%)',!!!!!!.,))))+!!!.)))).!!!!>)))'&!!!!!.)))).!!.!!!!!!! ",
" !!!+&)))'$+!!!+@''))),#+@-))))-#.+#,)))))-#..+=))')*+.!!!!!!!! ",
" !!!,))))'))!!!,)))))))';)))))')).=)')))))').@))))))))%!!!!!!!! ",
"  !!,)))))))!!!,))))')));)))))))).=))))))))).@))))))))%!!!!!!!  ",
"  !!!!!!!!!!!!!!!!!!!!!!!!!!!!!!!!!!!!!!!!!!!!!!!!!!!!!!!!!!!!  ",
"   !!!!!!!!!!!!!!!!!!!!!!!!!!!!!!!!!!!!!!!!!!!!!!!!!!!!!!!!!!   ",
"   !!!!!!!!!!!!!!!!!!!!!!!!!!!!!!!!!!!!!!!!!!!!!!!!!!!!!!!!!!   ",
"    !!!!!!!!!!!!!!!!!!!!!!!!!!!!!!!!!!!!!!!!!!!!!!!!!!!!!!!!    ",
"    !!!!!!!!!!!!!!!!!!!!!!!!!!!!!!!!!!!!!!!!!!!!!!!!!!!!!!!!    ",
"     !!!!!!!!!!!!!!!!!!!!!!!!!!!!!!!!!!!!!!!!!!!!!!!!!!!!!!     ",
"     !!!!!!!!!!!!!!!!!!!!!!!!!!!!!!!!!!!!!!!!!!!!!!!!!!!!!!     ",
"      !!!!!!!!!!!!!!!!!!!!!!!!!!!!!!!!!!!!!!!!!!!!!!!!!!!!      ",
"      !!!!!!!!!!!!!!!!!!!!!!!!!!!!!!!!!!!!!!!!!!!!!!!!!!!!      ",
"       !!!!!!!!!!!!!!!!!!!!!!!!!!!!!!!!!!!!!!!!!!!!!!!!!!       ",
"       !!!!!!!!!!!!!!!!!!!!!!!!!!!!!!!!!!!!!!!!!!!!!!!!!!       ",
"        !!!!!!!!!!!!!!!!!!!!!!!!!!!!!!!!!!!!!!!!!!!!!!!!        ",
"         !!!!!!!!!!!!!!!!!!!!!!!!!!!!!!!!!!!!!!!!!!!!!!         ",
"          !!!!!!!!!!!!!!!!!!!!!!!!!!!!!!!!!!!!!!!!!!!!          ",
"           !!!!!!!!!!!!!!!!!!!!!!!!!!!!!!!!!!!!!!!!!!           ",
"            !!!!!!!!!!!!!!!!!!!!!!!!!!!!!!!!!!!!!!!!            ",
"             !!!!!!!!!!!!!!!!!!!!!!!!!!!!!!!!!!!!!!             ",
"              !!!!!!!!!!!!!!!!!!!!!!!!!!!!!!!!!!!!              ",
"               !!!!!!!!!!!!!!!!!!!!!!!!!!!!!!!!!!               ",
"                !!!!!!!!!!!!!!!!!!!!!!!!!!!!!!!!                ",
"                 !!!!!!!!!!!!!!!!!!!!!!!!!!!!!!                 ",
"                   !!!!!!!!!!!!!!!!!!!!!!!!!!                   ",
"                      !!!!!!!!!!!!!!!!!!!!                      ",
"                         !!!!!!!!!!!!!!                         ",
"                           !!!!!!!!!!                           ",
"                             !!!!!!                             ",
"                               !!                               "};
