/* XPM */
static char * computer_xpm[] = {
"76 34 6 1",
" 	c None",
".	c #000000",
"+	c #CCCCCC",
"@	c #FF8888",
"#	c #FFFF88",
"$	c #88FF88",
"   ......................................................................   ",
"  .++++++++++++++++++++++++++++++++++++++++++++++++++++++++++++++++++++++.  ",
" .++++++++++++++++++++++++++++++++++++++++++++++++++++++++++++++++++++++++. ",
".++++++++++++++++++++++++++++++++++++++++++++++++++++++++++++++++++++++++++.",
".++++++++++++++++++++++++++++++++++++++++++++++++++++++++++++++++++++++++++.",
".++++++@++++++++#++++++++$+++++++++++++++++++++++++++++++++++++++++++++++++.",
".+++++@@@++++++###++++++$$$++++++++.....................................+++.",
".++++@@@@@++++#####++++$$$$$+++++++.....................................+++.",
".+++++@@@++++++###++++++$$$++++++++.....................................+++.",
".++++++@++++++++#++++++++$+++++++++.....................................+++.",
".++++++++++++++++++++++++++++++++++.....................................+++.",
".++++++++++++++++++++++++++++++++++.....................................+++.",
".++++++++++++++++++++++++++++++++++.....................................+++.",
".++++++++++++++++++++++++++++++++++.....................................+++.",
".++++++++++++++++++++++++++++++++++.....................................+++.",
".++++++++++++++++++++++++++++++++++++++++++++++++++++++++++++++++++++++++++.",
".++++++++++++++++++++++++++++++++++++++++++++++++++++++++++++++++++++++++++.",
".++++++++++++++++++++++++++++++++++++++++++++++++++++++++++++++++++++++++++.",
".++++++++++++++++++++++++++++++++++.....................................+++.",
".++++++++++++++++++++++++++++++++++.....................................+++.",
".++++++++++++++++++++++++++++++++++.....................................+++.",
".++++++++++++++++++++++++++++++++++.....................................+++.",
".++++++++++++++++++++++++++++++++++.....................................+++.",
".++++++++++++++++++++++++++++++++++.....................................+++.",
".++++++++++++++++++++++++++++++++++.....................................+++.",
".++++++++++++++++++++++++++++++++++.....................................+++.",
".++++++++++++++++++++++++++++++++++.....................................+++.",
".++++++++++++++++++++++++++++++++++++++++++++++++++++++++++++++++++++++++++.",
".++++++++++++++++++++++++++++++++++++++++++++++++++++++++++++++++++++++++++.",
".++++++++++++++++++++++++++++++++++++++++++++++++++++++++++++++++++++++++++.",
" .++++++++++++++++++++++++++++++++++++++++++++++++++++++++++++++++++++++++. ",
"  .++++++++++++++++++++++++++++++++++++++++++++++++++++++++++++++++++++++.  ",
"   ......................................................................   ",
"     ....                                                          ....     "};
